<?xml version="1.0" encoding="UTF-8"?>
<svg width="16px" height="16px" viewBox="0 0 16 16" version="1.1" xmlns="http://www.w3.org/2000/svg" xmlns:xlink="http://www.w3.org/1999/xlink">
    <title>icon/自由模式</title>
    <g id="管控界面" stroke="none" stroke-width="1" fill="none" fill-rule="evenodd">
        <g id="01-1-首页-默认" transform="translate(-32.000000, -259.000000)">
            <g id="头像区" transform="translate(16.000000, 177.000000)">
                <g id="icon/自由模式" transform="translate(16.000000, 82.000000)">
                    <rect id="矩形" fill="#D8D8D8" opacity="0" x="0" y="0" width="16" height="16"></rect>
                    <path d="M14.8276622,2.63825077 C14.7570924,2.60299019 14.7218318,2.60299019 14.6512782,2.60299019 C14.4749429,2.60299019 14.3338195,2.70882059 14.3338195,2.70882059 C14.1927285,2.74406496 1.81131774,7.64724822 1.38802858,7.82363222 C1.14107476,7.92946262 1,8.1058304 1,8.31747498 C1,8.49385898 1.1058304,8.6349824 1.24695382,8.70548734 C1.59967316,8.84661076 5.02131192,10.4282765 5.02131192,10.4282765 L5.05655628,10.4282765 L5.77921978,9.5509952 L2.8572627,8.34788602 L12.6455124,4.42572218 C11.7883267,5.21940963 6.77803169,9.53450025 6.55581217,9.7567522 C6.27009442,10.0107452 5.98088954,10.4269141 5.94916475,10.7443566 L5.85736397,13.3807419 L6.91535981,13.3793795 L6.91535981,13.3476547 C6.91535981,13.2524155 7.00716058,11.2085344 7.00716058,11.0180073 C7.00716058,10.8593185 7.10238362,10.6525721 7.19763909,10.5891063 C7.26116976,10.525608 12.4868235,5.91818222 13.2487213,5.18802544 C13.2487213,5.18802544 11.003203,12.0425591 11.003203,12.0742839 C11.003203,12.1060736 10.9714133,12.1377983 10.9397047,12.1377983 L10.9079637,12.1377983 C10.8127245,12.1060736 8.48140644,10.7409182 8.44963299,10.7409182 L8.41789198,10.7409182 L7.92764989,11.7390975 L7.96289425,11.7390975 C7.99820349,11.7390975 10.7005199,13.1853652 11.0179787,13.32644 C11.0885485,13.3617492 11.1943627,13.3970098 11.3001931,13.3970098 C11.6176518,13.3970098 11.89985,13.1853814 12.0056642,12.8325972 C12.0409734,12.6915225 12.5348162,11.10418 13.0991639,9.23462313 C13.9457909,6.48321113 14.8982158,3.34377056 14.9334602,3.2378915 L14.9334602,3.20264714 C15.00403,3.02627936 15.0745998,2.81461856 14.8276622,2.63825077 Z" id="路径" fill="#666666" fill-rule="nonzero"></path>
                </g>
            </g>
        </g>
    </g>
</svg>