<?xml version="1.0" encoding="UTF-8"?>
<svg width="16px" height="16px" viewBox="0 0 16 16" version="1.1" xmlns="http://www.w3.org/2000/svg" xmlns:xlink="http://www.w3.org/1999/xlink">
    <title>icon/离线状态</title>
    <g id="管控界面" stroke="none" stroke-width="1" fill="none" fill-rule="evenodd">
        <g id="01-1-首页-默认" transform="translate(-128.000000, -259.000000)">
            <g id="头像区" transform="translate(16.000000, 177.000000)">
                <g id="icon/离线状态" transform="translate(112.000000, 82.000000)">
                    <rect id="矩形" fill="#D8D8D8" opacity="0" x="0" y="0" width="16" height="16"></rect>
                    <g id="编组" transform="translate(0.050003, 1.900000)" fill="#666666" fill-rule="nonzero">
                        <path d="M7.98083333,7.625 C7.1675,7.625 6.35416667,7.93 5.84583333,8.43833333 C5.6425,8.64166667 5.3375,8.64166667 5.13416667,8.43833333 C4.82916667,8.235 4.93083333,7.82833333 5.13416667,7.52333333 C5.6425,7.11666667 6.35416667,6.81166667 7.06583333,6.60833333 L7.98083333,7.625 Z M4.52416667,4.27 C3.8125,4.575 3.2025,4.98166667 2.69416667,5.49 C2.49083333,5.69333333 2.49083333,6.1 2.69416667,6.30333333 C2.8975,6.50666667 3.30416667,6.50666667 3.40583333,6.30333333 C4.01583333,5.795 4.62583333,5.38833333 5.3375,5.08333333 L4.52416667,4.27 Z M1.9825,1.72833333 C1.3725,2.135 0.660833333,2.64333333 0.1525,3.25333333 C-0.0508333333,3.45666667 -0.0508333333,3.86333333 0.1525,4.06666667 C0.355833333,4.27 0.660833333,4.27 0.864166667,4.06666667 C1.47416667,3.45666667 2.08416667,2.94833333 2.79583333,2.54166667 L1.9825,1.72833333 Z M15.7075,3.25333333 C13.6741667,1.22 10.9291667,0 7.98083333,0 C6.76083333,0 5.6425,0.203333333 4.62583333,0.508333333 L5.54083333,1.42333333 C6.2525,1.22 7.06583333,1.11833333 7.98083333,1.11833333 C10.7258333,1.11833333 13.1658333,2.23666667 14.9958333,3.965 C15.1991667,4.27 15.5041667,4.27 15.7075,3.965 C15.9108333,3.86333333 16.0125,3.45666667 15.7075,3.25333333 Z M7.98083333,3.45666667 L7.57416667,3.45666667 L8.79416667,4.67666667 C10.1158333,4.77833333 11.4375,5.38833333 12.3525,6.30333333 C12.5558333,6.50666667 12.8608333,6.50666667 13.0641667,6.30333333 C13.3691667,6.1 13.3691667,5.69333333 13.0641667,5.49 C11.7425,4.27 9.9125,3.45666667 7.98083333,3.45666667 L7.98083333,3.45666667 Z M7.98083333,9.96333333 C7.37083333,9.96333333 6.8625,10.4716667 6.8625,11.0816667 C6.8625,11.6916667 7.37083333,12.2 7.98083333,12.2 C8.59083333,12.2 9.09916667,11.6916667 9.09916667,11.0816667 C9.09916667,10.37 8.59083333,9.96333333 7.98083333,9.96333333 Z M11.0308333,8.03166667 L10.0141667,7.015 L7.57416667,4.575 L6.5575,3.55833333 L4.7275,1.72833333 L3.8125,0.813333333 L3.2025,0.203333333 C2.8975,-1.03118902e-13 2.5925,-1.03118902e-13 2.38916667,0.203333333 C2.18583333,0.406666667 2.18583333,0.813333333 2.38916667,1.01666667 L2.69416667,1.32166667 L3.5075,2.135 L5.74416667,4.37166667 L6.15083333,4.77833333 L10.7258333,9.35333333 C10.9291667,9.55666667 11.3358333,9.55666667 11.5391667,9.35333333 C11.7425,9.15 11.7425,8.74333333 11.5391667,8.54 L11.0308333,8.03166667 L11.0308333,8.03166667 Z" id="形状"></path>
                    </g>
                </g>
            </g>
        </g>
    </g>
</svg>