<?xml version="1.0" encoding="UTF-8"?>
<svg width="20px" height="20px" viewBox="0 0 20 20" version="1.1" xmlns="http://www.w3.org/2000/svg" xmlns:xlink="http://www.w3.org/1999/xlink">
    <title>icon/VIP</title>
    <g id="管控界面" stroke="none" stroke-width="1" fill="none" fill-rule="evenodd">
        <g id="01-2-首页-切换" transform="translate(-28.000000, -320.000000)">
            <g id="VIP过期提醒" transform="translate(16.000000, 309.000000)">
                <g id="icon/VIP" transform="translate(12.000000, 11.000000)">
                    <rect id="矩形" fill="#D8D8D8" opacity="0" x="0" y="0" width="20" height="20"></rect>
                    <path d="M10.3742334,2.9223657 L18.244303,11.8046506 C18.5429711,12.1417321 18.579464,12.6368717 18.333442,13.0140981 L15.7037106,17.0462752 C15.5191073,17.3293281 15.2040358,17.5 14.8661048,17.5 L5.13389517,17.5 C4.79596423,17.5 4.48089268,17.3293281 4.29628939,17.0462752 L1.66655796,13.0140981 C1.42053603,12.6368717 1.45702895,12.1417321 1.75569698,11.8046506 L9.62576662,2.9223657 C9.8088966,2.71568231 10.1249028,2.6965885 10.3315862,2.87971848 C10.3466471,2.8930631 10.3608888,2.90730475 10.3742334,2.9223657 Z" id="多边形" fill="#FFFFFF" transform="translate(10.000000, 10.000000) scale(-1, -1) translate(-10.000000, -10.000000) "></path>
                    <path d="M6.72416874,6.625 C7.3595788,7.79266585 8.59737722,8.58514611 10.0202693,8.58514611 C11.4134856,8.58514611 12.6292483,7.82537709 13.2758313,6.69756516" id="路径" stroke="#576CD3" stroke-linecap="round"></path>
                </g>
            </g>
        </g>
    </g>
</svg>